<svg version="1.1" id="Layer_1" xmlns="http://www.w3.org/2000/svg" xmlns:xlink="http://www.w3.org/1999/xlink" x="0px" y="0px"
	 width="100%" viewBox="0 0 896 104" enable-background="new 0 0 896 104" xml:space="preserve">
<path fill="#FEFEFE" opacity="1.000000" stroke="none" 
	d="
M673.000000,105.000000 
	C448.666656,105.000000 224.833328,105.000000 1.000000,105.000000 
	C1.000000,70.333336 1.000000,35.666668 1.000000,1.000000 
	C299.666656,1.000000 598.333313,1.000000 897.000000,1.000000 
	C897.000000,35.666668 897.000000,70.333336 897.000000,105.000000 
	C822.500000,105.000000 748.000000,105.000000 673.000000,105.000000 
M798.499939,87.168312 
	C823.767517,87.168312 849.035095,87.168312 874.384094,87.168312 
	C874.384094,63.204430 874.384094,39.802994 874.384094,16.328968 
	C772.993835,16.328968 671.919128,16.328968 570.878784,16.328968 
	C570.878784,39.998589 570.878784,63.409256 570.878784,87.168312 
	C646.599121,87.168312 722.049500,87.168312 798.499939,87.168312 
M103.474480,55.022377 
	C106.597031,55.022377 109.719582,55.022377 113.238770,55.022377 
	C113.238770,62.224949 113.238770,68.974197 113.238770,75.867111 
	C115.448517,75.867111 117.241936,75.867111 119.112595,75.867111 
	C119.112595,60.210178 119.112595,44.691345 119.112595,28.929123 
	C116.982094,29.025187 115.226692,29.104336 113.038925,29.202982 
	C113.038925,36.259953 113.038925,42.993523 113.038925,49.631943 
	C104.362747,49.631943 96.142250,49.631943 87.675659,49.631943 
	C87.675659,42.664009 87.675659,36.040813 87.675659,29.350941 
	C85.383324,29.350941 83.368332,29.350941 81.528481,29.350941 
	C81.528481,45.102962 81.528481,60.479565 81.528481,75.672409 
	C83.804459,75.672409 85.707710,75.672409 87.874176,75.672409 
	C87.874176,68.718559 87.874176,62.109318 87.874176,55.022377 
	C92.917526,55.022377 97.701157,55.022377 103.474480,55.022377 
M516.005554,72.648003 
	C523.063904,68.145699 526.133362,61.469044 526.453186,53.336906 
	C526.961182,40.421993 518.809204,30.654440 506.285095,29.110514 
	C493.532928,27.538473 482.731171,34.790745 480.392761,47.124996 
	C478.657257,56.279064 480.341339,64.937576 488.132080,70.962051 
	C496.568176,77.485649 505.883026,77.576141 516.005554,72.648003 
M176.575226,74.265358 
	C178.981567,75.016151 181.387894,75.766945 183.794235,76.517738 
	C183.979019,76.079399 184.163803,75.641060 184.348587,75.202721 
	C179.552856,68.533669 174.757141,61.864609 169.753128,54.905888 
	C170.768738,54.492062 171.511093,54.220764 172.227493,53.892757 
	C178.222855,51.147823 181.396133,46.190792 180.763947,40.579395 
	C180.086639,34.567539 176.657883,30.591978 169.604507,29.754951 
	C163.269043,29.003122 156.773941,29.596544 150.194000,29.596544 
	C150.194000,44.851978 150.194000,60.268227 150.194000,75.774078 
	C152.305237,75.774078 154.206207,75.774078 156.554810,75.774078 
	C156.554810,69.140427 156.554810,62.726665 156.554810,56.461494 
	C161.214676,55.149639 164.169128,56.381210 166.541794,60.266197 
	C169.395157,64.938263 172.862076,69.235603 176.575226,74.265358 
M357.849335,45.501389 
	C357.849335,55.591301 357.849335,65.681213 357.849335,75.637405 
	C360.315460,75.637405 362.199585,75.637405 364.327454,75.637405 
	C364.327454,68.664276 364.327454,62.050159 364.327454,55.354759 
	C372.947632,55.354759 381.306732,55.354759 390.096619,55.354759 
	C390.096619,62.443237 390.096619,69.181046 390.096619,76.062546 
	C392.299103,75.956383 394.050476,75.871964 395.728760,75.791061 
	C395.728760,60.012878 395.728760,44.608589 395.728760,29.230217 
	C393.694611,29.230217 391.937775,29.230217 389.763306,29.230217 
	C389.763306,36.185844 389.763306,42.926861 389.763306,49.783501 
	C381.083649,49.783501 372.837524,49.783501 364.158447,49.783501 
	C364.158447,42.842537 364.158447,36.102745 364.158447,29.291990 
	C361.835175,29.291990 359.951141,29.291990 357.849335,29.291990 
	C357.849335,34.553837 357.849335,39.528252 357.849335,45.501389 
M426.572998,73.467270 
	C426.131409,76.539177 428.316589,75.995384 430.077637,75.996468 
	C438.076355,76.001411 446.075104,76.000748 454.073730,75.975967 
	C454.540039,75.974525 455.005646,75.743301 455.556091,75.596458 
	C455.556091,74.136238 455.556091,72.749535 455.556091,70.859650 
	C447.921051,70.859650 440.519928,70.859650 433.327637,70.859650 
	C433.327637,65.273735 433.327637,60.199341 433.327637,54.808685 
	C439.429443,54.808685 445.205902,54.808685 450.879272,54.808685 
	C450.879272,53.060146 450.879272,51.655392 450.879272,49.911827 
	C444.853027,49.911827 439.089264,49.911827 433.228760,49.911827 
	C433.228760,44.475956 433.228760,39.404587 433.228760,33.849907 
	C440.856842,33.849907 448.267853,33.849907 455.935242,33.849907 
	C455.751099,31.944689 455.616760,30.554924 455.491180,29.255688 
	C445.650360,29.255688 436.204773,29.255688 426.571167,29.255688 
	C426.571167,43.829769 426.571167,58.148895 426.572998,73.467270 
M267.174072,36.475349 
	C271.010559,38.859810 271.018524,35.553867 272.031281,33.563251 
	C266.101959,29.020842 259.788116,27.819996 253.565842,29.908825 
	C248.193573,31.712309 244.960785,35.954659 244.822723,41.382298 
	C244.677811,47.079178 246.966629,50.591854 252.565689,52.842571 
	C255.172775,53.890568 257.932648,54.551472 260.586487,55.491615 
	C266.196259,57.478935 267.891754,59.896847 267.038788,64.515312 
	C266.303131,68.498550 262.651672,71.479828 257.671417,70.820152 
	C253.566162,70.276382 249.647232,68.326019 245.023392,66.792610 
	C244.540878,67.495430 243.659897,68.778664 242.609085,70.309258 
	C249.316132,75.769928 256.394928,77.523834 264.292938,74.830627 
	C269.777374,72.960449 273.029022,68.086853 273.178101,62.203983 
	C273.331268,56.157017 271.304810,53.220428 264.978455,50.636814 
	C261.447754,49.194920 257.579376,48.365894 254.379150,46.414478 
	C252.644485,45.356735 250.998871,42.456818 251.130020,40.510323 
	C251.262314,38.547028 253.458832,35.351360 255.075241,35.136623 
	C258.776459,34.644924 262.675415,35.641544 267.174072,36.475349 
M28.463610,67.091705 
	C27.777203,66.370796 27.005375,65.713097 26.417747,64.919083 
	C21.179222,57.840656 21.488169,45.712173 27.037937,39.276211 
	C32.260513,33.219685 40.486832,32.210545 49.271656,37.067345 
	C52.925480,39.087406 53.415054,36.512180 54.660442,34.511429 
	C46.065609,27.374529 33.206085,27.067919 24.627663,33.730431 
	C16.141083,40.321609 13.561383,53.624958 18.726988,64.159782 
	C23.494051,73.881805 34.160400,78.321609 45.906338,75.007111 
	C49.362804,74.031761 52.471985,71.825668 56.315590,69.894592 
	C54.365452,68.071968 53.333694,67.107674 52.290089,66.132301 
	C44.644783,71.924843 37.003056,73.028717 28.463610,67.091705 
M320.706360,33.997650 
	C324.506805,33.997650 328.307251,33.997650 332.215149,33.997650 
	C332.215149,32.175396 332.215149,30.771456 332.215149,29.253178 
	C319.920807,29.253178 307.830933,29.253178 295.862244,29.253178 
	C295.862244,30.916533 295.862244,32.326931 295.862244,34.086033 
	C300.903992,34.086033 305.674591,34.086033 310.857727,34.086033 
	C310.857727,48.178715 310.857727,61.910175 310.857727,75.700562 
	C313.179565,75.700562 315.064087,75.700562 317.150696,75.700562 
	C317.150696,62.932503 317.131683,50.459904 317.171967,37.987492 
	C317.177765,36.195152 316.284271,33.630512 320.706360,33.997650 
M216.150681,43.503342 
	C216.150681,38.736652 216.150681,33.969963 216.150681,29.198229 
	C213.793030,29.198229 212.025925,29.198229 210.055786,29.198229 
	C210.055786,44.796989 210.055786,60.200397 210.055786,75.714035 
	C212.149353,75.714035 214.034714,75.714035 216.150681,75.714035 
	C216.150681,65.122398 216.150681,54.812572 216.150681,43.503342 
z"/>
<path fill="#020202" opacity="1.000000" stroke="none" 
	d="
M797.999878,87.168312 
	C722.049500,87.168312 646.599121,87.168312 570.878784,87.168312 
	C570.878784,63.409256 570.878784,39.998589 570.878784,16.328968 
	C671.919128,16.328968 772.993835,16.328968 874.384094,16.328968 
	C874.384094,39.802994 874.384094,63.204430 874.384094,87.168312 
	C849.035095,87.168312 823.767517,87.168312 797.999878,87.168312 
M841.831970,29.219980 
	C840.337952,29.140732 838.844849,29.028978 837.349792,28.987511 
	C827.699951,28.719870 820.094604,32.316399 815.799316,41.226181 
	C811.312988,50.532055 811.995850,59.768337 818.367737,67.929703 
	C824.561768,75.863136 833.402039,77.361626 842.710571,75.477753 
	C852.921021,73.411308 859.655640,64.839119 860.004456,54.481647 
	C860.451355,41.211090 854.838928,33.112244 841.831970,29.219980 
M592.566650,47.482151 
	C595.857666,35.098892 607.783752,30.302298 619.645203,36.883614 
	C623.321228,38.923290 625.003235,38.124584 626.039917,34.458744 
	C612.847534,23.366648 591.245667,28.836632 586.396667,44.355377 
	C583.087585,54.946026 586.301147,65.842735 594.430115,71.595009 
	C602.511658,77.313736 617.677246,77.678268 625.122925,72.234741 
	C625.938782,71.638260 626.824585,70.487701 626.851990,69.569466 
	C627.014038,64.143242 626.931824,58.709732 626.931824,53.280895 
	C621.651550,53.280895 616.909485,53.280895 611.925354,53.280895 
	C612.122070,55.011055 612.281921,56.416245 612.473389,58.099957 
	C615.419495,58.099957 618.021912,58.099957 620.981689,58.099957 
	C620.981689,60.197937 620.733643,62.034901 621.032654,63.778042 
	C621.683472,67.572815 619.789673,69.108406 616.459778,70.020866 
	C601.150818,74.215775 590.636902,64.784698 592.566650,47.482151 
M691.891418,29.873693 
	C689.792175,29.510023 687.692932,29.146353 685.174622,28.710083 
	C685.174622,39.201122 685.198486,48.830868 685.165100,58.460415 
	C685.146729,63.755333 682.949890,67.849571 677.946289,69.915054 
	C669.414368,73.437027 661.125977,68.027016 660.903259,58.641827 
	C660.671326,48.870251 660.851501,39.088894 660.851501,29.151241 
	C658.375488,29.151241 656.444702,29.151241 654.056396,29.151241 
	C654.056396,38.767250 653.998230,48.215317 654.071533,57.662365 
	C654.157471,68.734222 661.847900,76.060341 673.205750,76.024162 
	C684.284485,75.988892 691.849426,68.669945 691.929749,57.787327 
	C691.996094,48.796524 691.940735,39.804825 691.891418,29.873693 
M789.049438,37.828876 
	C786.909119,32.145679 782.224792,29.672310 776.722351,29.212999 
	C770.664612,28.707327 764.532043,29.097672 758.275024,29.097672 
	C758.275024,44.846714 758.275024,60.224419 758.275024,75.743660 
	C760.533447,75.743660 762.579529,75.743660 765.037842,75.743660 
	C765.037842,69.751625 765.037842,64.017387 765.037842,58.338943 
	C786.691650,56.565266 792.050781,52.137348 789.049438,37.828876 
M728.018738,50.500114 
	C728.018738,43.384693 728.018738,36.269268 728.018738,29.183895 
	C725.540344,29.183895 723.599365,29.183895 721.427185,29.183895 
	C721.427185,44.795448 721.427185,60.204422 721.427185,75.728012 
	C723.711121,75.728012 725.755066,75.728012 728.018738,75.728012 
	C728.018738,67.459641 728.018738,59.479839 728.018738,50.500114 
z"/>
<path fill="#0D0D0D" opacity="1.000000" stroke="none" 
	d="
M102.979630,55.022377 
	C97.701157,55.022377 92.917526,55.022377 87.874176,55.022377 
	C87.874176,62.109318 87.874176,68.718559 87.874176,75.672409 
	C85.707710,75.672409 83.804459,75.672409 81.528481,75.672409 
	C81.528481,60.479565 81.528481,45.102962 81.528481,29.350941 
	C83.368332,29.350941 85.383324,29.350941 87.675659,29.350941 
	C87.675659,36.040813 87.675659,42.664009 87.675659,49.631943 
	C96.142250,49.631943 104.362747,49.631943 113.038925,49.631943 
	C113.038925,42.993523 113.038925,36.259953 113.038925,29.202982 
	C115.226692,29.104336 116.982094,29.025187 119.112595,28.929123 
	C119.112595,44.691345 119.112595,60.210178 119.112595,75.867111 
	C117.241936,75.867111 115.448517,75.867111 113.238770,75.867111 
	C113.238770,68.974197 113.238770,62.224949 113.238770,55.022377 
	C109.719582,55.022377 106.597031,55.022377 102.979630,55.022377 
z"/>
<path fill="#090909" opacity="1.000000" stroke="none" 
	d="
M515.681396,72.836433 
	C505.883026,77.576141 496.568176,77.485649 488.132080,70.962051 
	C480.341339,64.937576 478.657257,56.279064 480.392761,47.124996 
	C482.731171,34.790745 493.532928,27.538473 506.285095,29.110514 
	C518.809204,30.654440 526.961182,40.421993 526.453186,53.336906 
	C526.133362,61.469044 523.063904,68.145699 515.681396,72.836433 
M509.913605,69.841713 
	C518.059265,66.076126 520.276062,59.117363 519.852051,50.922764 
	C519.484131,43.813255 516.749268,37.998924 509.710541,35.144955 
	C503.047302,32.443233 494.745636,34.360142 490.499542,39.420319 
	C485.580902,45.281944 484.981415,57.143787 489.261810,63.912395 
	C493.155273,70.069122 500.505798,72.334229 509.913605,69.841713 
z"/>
<path fill="#050505" opacity="1.000000" stroke="none" 
	d="
M176.319290,73.980270 
	C172.862076,69.235603 169.395157,64.938263 166.541794,60.266197 
	C164.169128,56.381210 161.214676,55.149639 156.554810,56.461494 
	C156.554810,62.726665 156.554810,69.140427 156.554810,75.774078 
	C154.206207,75.774078 152.305237,75.774078 150.194000,75.774078 
	C150.194000,60.268227 150.194000,44.851978 150.194000,29.596544 
	C156.773941,29.596544 163.269043,29.003122 169.604507,29.754951 
	C176.657883,30.591978 180.086639,34.567539 180.763947,40.579395 
	C181.396133,46.190792 178.222855,51.147823 172.227493,53.892757 
	C171.511093,54.220764 170.768738,54.492062 169.753128,54.905888 
	C174.757141,61.864609 179.552856,68.533669 184.348587,75.202721 
	C184.163803,75.641060 183.979019,76.079399 183.794235,76.517738 
	C181.387894,75.766945 178.981567,75.016151 176.319290,73.980270 
M156.416504,49.062149 
	C156.804916,49.682648 157.208939,50.849499 157.579330,50.838917 
	C161.184509,50.735920 164.852829,50.788403 168.367737,50.102570 
	C172.729233,49.251556 174.623749,45.881374 174.512238,41.671314 
	C174.392288,37.143101 171.389862,34.776115 167.217682,34.284653 
	C163.820450,33.884480 160.338516,34.203312 156.409607,34.203312 
	C156.409607,38.939102 156.409607,43.537983 156.416504,49.062149 
z"/>
<path fill="#000000" opacity="1.000000" stroke="none" 
	d="
M357.849335,45.002026 
	C357.849335,39.528252 357.849335,34.553837 357.849335,29.291990 
	C359.951141,29.291990 361.835175,29.291990 364.158447,29.291990 
	C364.158447,36.102745 364.158447,42.842537 364.158447,49.783501 
	C372.837524,49.783501 381.083649,49.783501 389.763306,49.783501 
	C389.763306,42.926861 389.763306,36.185844 389.763306,29.230217 
	C391.937775,29.230217 393.694611,29.230217 395.728760,29.230217 
	C395.728760,44.608589 395.728760,60.012878 395.728760,75.791061 
	C394.050476,75.871964 392.299103,75.956383 390.096619,76.062546 
	C390.096619,69.181046 390.096619,62.443237 390.096619,55.354759 
	C381.306732,55.354759 372.947632,55.354759 364.327454,55.354759 
	C364.327454,62.050159 364.327454,68.664276 364.327454,75.637405 
	C362.199585,75.637405 360.315460,75.637405 357.849335,75.637405 
	C357.849335,65.681213 357.849335,55.591301 357.849335,45.002026 
z"/>
<path fill="#010101" opacity="1.000000" stroke="none" 
	d="
M426.572083,72.967644 
	C426.571167,58.148895 426.571167,43.829769 426.571167,29.255688 
	C436.204773,29.255688 445.650360,29.255688 455.491180,29.255688 
	C455.616760,30.554924 455.751099,31.944689 455.935242,33.849907 
	C448.267853,33.849907 440.856842,33.849907 433.228760,33.849907 
	C433.228760,39.404587 433.228760,44.475956 433.228760,49.911827 
	C439.089264,49.911827 444.853027,49.911827 450.879272,49.911827 
	C450.879272,51.655392 450.879272,53.060146 450.879272,54.808685 
	C445.205902,54.808685 439.429443,54.808685 433.327637,54.808685 
	C433.327637,60.199341 433.327637,65.273735 433.327637,70.859650 
	C440.519928,70.859650 447.921051,70.859650 455.556091,70.859650 
	C455.556091,72.749535 455.556091,74.136238 455.556091,75.596458 
	C455.005646,75.743301 454.540039,75.974525 454.073730,75.975967 
	C446.075104,76.000748 438.076355,76.001411 430.077637,75.996468 
	C428.316589,75.995384 426.131409,76.539177 426.572083,72.967644 
z"/>
<path fill="#0B0B0B" opacity="1.000000" stroke="none" 
	d="
M266.834076,36.254578 
	C262.675415,35.641544 258.776459,34.644924 255.075241,35.136623 
	C253.458832,35.351360 251.262314,38.547028 251.130020,40.510323 
	C250.998871,42.456818 252.644485,45.356735 254.379150,46.414478 
	C257.579376,48.365894 261.447754,49.194920 264.978455,50.636814 
	C271.304810,53.220428 273.331268,56.157017 273.178101,62.203983 
	C273.029022,68.086853 269.777374,72.960449 264.292938,74.830627 
	C256.394928,77.523834 249.316132,75.769928 242.609085,70.309258 
	C243.659897,68.778664 244.540878,67.495430 245.023392,66.792610 
	C249.647232,68.326019 253.566162,70.276382 257.671417,70.820152 
	C262.651672,71.479828 266.303131,68.498550 267.038788,64.515312 
	C267.891754,59.896847 266.196259,57.478935 260.586487,55.491615 
	C257.932648,54.551472 255.172775,53.890568 252.565689,52.842571 
	C246.966629,50.591854 244.677811,47.079178 244.822723,41.382298 
	C244.960785,35.954659 248.193573,31.712309 253.565842,29.908825 
	C259.788116,27.819996 266.101959,29.020842 272.031281,33.563251 
	C271.018524,35.553867 271.010559,38.859810 266.834076,36.254578 
z"/>
<path fill="#0B0B0B" opacity="1.000000" stroke="none" 
	d="
M28.743729,67.345123 
	C37.003056,73.028717 44.644783,71.924843 52.290089,66.132301 
	C53.333694,67.107674 54.365452,68.071968 56.315590,69.894592 
	C52.471985,71.825668 49.362804,74.031761 45.906338,75.007111 
	C34.160400,78.321609 23.494051,73.881805 18.726988,64.159782 
	C13.561383,53.624958 16.141083,40.321609 24.627663,33.730431 
	C33.206085,27.067919 46.065609,27.374529 54.660442,34.511429 
	C53.415054,36.512180 52.925480,39.087406 49.271656,37.067345 
	C40.486832,32.210545 32.260513,33.219685 27.037937,39.276211 
	C21.488169,45.712173 21.179222,57.840656 26.417747,64.919083 
	C27.005375,65.713097 27.777203,66.370796 28.743729,67.345123 
z"/>
<path fill="#000000" opacity="1.000000" stroke="none" 
	d="
M320.229919,33.997990 
	C316.284271,33.630512 317.177765,36.195152 317.171967,37.987492 
	C317.131683,50.459904 317.150696,62.932503 317.150696,75.700562 
	C315.064087,75.700562 313.179565,75.700562 310.857727,75.700562 
	C310.857727,61.910175 310.857727,48.178715 310.857727,34.086033 
	C305.674591,34.086033 300.903992,34.086033 295.862244,34.086033 
	C295.862244,32.326931 295.862244,30.916533 295.862244,29.253178 
	C307.830933,29.253178 319.920807,29.253178 332.215149,29.253178 
	C332.215149,30.771456 332.215149,32.175396 332.215149,33.997650 
	C328.307251,33.997650 324.506805,33.997650 320.229919,33.997990 
z"/>
<path fill="#000000" opacity="1.000000" stroke="none" 
	d="
M216.150681,44.003044 
	C216.150681,54.812572 216.150681,65.122398 216.150681,75.714035 
	C214.034714,75.714035 212.149353,75.714035 210.055786,75.714035 
	C210.055786,60.200397 210.055786,44.796989 210.055786,29.198229 
	C212.025925,29.198229 213.793030,29.198229 216.150681,29.198229 
	C216.150681,33.969963 216.150681,38.736652 216.150681,44.003044 
z"/>
<path fill="#F4F4F4" opacity="1.000000" stroke="none" 
	d="
M842.244324,29.334190 
	C854.838928,33.112244 860.451355,41.211090 860.004456,54.481647 
	C859.655640,64.839119 852.921021,73.411308 842.710571,75.477753 
	C833.402039,77.361626 824.561768,75.863136 818.367737,67.929703 
	C811.995850,59.768337 811.312988,50.532055 815.799316,41.226181 
	C820.094604,32.316399 827.699951,28.719870 837.349792,28.987511 
	C838.844849,29.028978 840.337952,29.140732 842.244324,29.334190 
M840.525269,34.658943 
	C831.661865,32.726681 823.659607,36.966999 821.094177,44.955349 
	C817.727051,55.440075 821.617615,66.341713 829.913574,69.668243 
	C839.032104,73.324577 848.797180,69.239357 851.989502,60.432858 
	C856.087219,49.128735 851.544495,38.221966 840.525269,34.658943 
z"/>
<path fill="#F4F4F4" opacity="1.000000" stroke="none" 
	d="
M592.450562,47.884285 
	C590.636902,64.784698 601.150818,74.215775 616.459778,70.020866 
	C619.789673,69.108406 621.683472,67.572815 621.032654,63.778042 
	C620.733643,62.034901 620.981689,60.197937 620.981689,58.099957 
	C618.021912,58.099957 615.419495,58.099957 612.473389,58.099957 
	C612.281921,56.416245 612.122070,55.011055 611.925354,53.280895 
	C616.909485,53.280895 621.651550,53.280895 626.931824,53.280895 
	C626.931824,58.709732 627.014038,64.143242 626.851990,69.569466 
	C626.824585,70.487701 625.938782,71.638260 625.122925,72.234741 
	C617.677246,77.678268 602.511658,77.313736 594.430115,71.595009 
	C586.301147,65.842735 583.087585,54.946026 586.396667,44.355377 
	C591.245667,28.836632 612.847534,23.366648 626.039917,34.458744 
	C625.003235,38.124584 623.321228,38.923290 619.645203,36.883614 
	C607.783752,30.302298 595.857666,35.098892 592.450562,47.884285 
z"/>
<path fill="#F1F1F1" opacity="1.000000" stroke="none" 
	d="
M691.915405,30.343609 
	C691.940735,39.804825 691.996094,48.796524 691.929749,57.787327 
	C691.849426,68.669945 684.284485,75.988892 673.205750,76.024162 
	C661.847900,76.060341 654.157471,68.734222 654.071533,57.662365 
	C653.998230,48.215317 654.056396,38.767250 654.056396,29.151241 
	C656.444702,29.151241 658.375488,29.151241 660.851501,29.151241 
	C660.851501,39.088894 660.671326,48.870251 660.903259,58.641827 
	C661.125977,68.027016 669.414368,73.437027 677.946289,69.915054 
	C682.949890,67.849571 685.146729,63.755333 685.165100,58.460415 
	C685.198486,48.830868 685.174622,39.201122 685.174622,28.710083 
	C687.692932,29.146353 689.792175,29.510023 691.915405,30.343609 
z"/>
<path fill="#F6F6F6" opacity="1.000000" stroke="none" 
	d="
M789.185669,38.207314 
	C792.050781,52.137348 786.691650,56.565266 765.037842,58.338943 
	C765.037842,64.017387 765.037842,69.751625 765.037842,75.743660 
	C762.579529,75.743660 760.533447,75.743660 758.275024,75.743660 
	C758.275024,60.224419 758.275024,44.846714 758.275024,29.097672 
	C764.532043,29.097672 770.664612,28.707327 776.722351,29.212999 
	C782.224792,29.672310 786.909119,32.145679 789.185669,38.207314 
M764.932312,38.615849 
	C764.932312,43.348717 764.932312,48.081581 764.932312,53.391396 
	C769.322327,52.925743 773.133301,52.860287 776.778809,52.050327 
	C781.488770,51.003891 783.333740,47.540253 783.216614,42.820011 
	C783.105835,38.354092 780.843872,35.653721 776.611389,34.804279 
	C773.889832,34.258099 771.042969,34.370335 768.280579,33.984879 
	C765.227234,33.558823 764.544556,35.053902 764.932312,38.615849 
z"/>
<path fill="#F4F4F4" opacity="1.000000" stroke="none" 
	d="
M728.018738,51.000076 
	C728.018738,59.479839 728.018738,67.459641 728.018738,75.728012 
	C725.755066,75.728012 723.711121,75.728012 721.427185,75.728012 
	C721.427185,60.204422 721.427185,44.795448 721.427185,29.183895 
	C723.599365,29.183895 725.540344,29.183895 728.018738,29.183895 
	C728.018738,36.269268 728.018738,43.384693 728.018738,51.000076 
z"/>
<path fill="#FAFAFA" opacity="1.000000" stroke="none" 
	d="
M509.527832,69.940186 
	C500.505798,72.334229 493.155273,70.069122 489.261810,63.912395 
	C484.981415,57.143787 485.580902,45.281944 490.499542,39.420319 
	C494.745636,34.360142 503.047302,32.443233 509.710541,35.144955 
	C516.749268,37.998924 519.484131,43.813255 519.852051,50.922764 
	C520.276062,59.117363 518.059265,66.076126 509.527832,69.940186 
z"/>
<path fill="#F4F4F4" opacity="1.000000" stroke="none" 
	d="
M156.413055,48.599506 
	C156.409607,43.537983 156.409607,38.939102 156.409607,34.203312 
	C160.338516,34.203312 163.820450,33.884480 167.217682,34.284653 
	C171.389862,34.776115 174.392288,37.143101 174.512238,41.671314 
	C174.623749,45.881374 172.729233,49.251556 168.367737,50.102570 
	C164.852829,50.788403 161.184509,50.735920 157.579330,50.838917 
	C157.208939,50.849499 156.804916,49.682648 156.413055,48.599506 
z"/>
<path fill="#030303" opacity="1.000000" stroke="none" 
	d="
M840.921875,34.735798 
	C851.544495,38.221966 856.087219,49.128735 851.989502,60.432858 
	C848.797180,69.239357 839.032104,73.324577 829.913574,69.668243 
	C821.617615,66.341713 817.727051,55.440075 821.094177,44.955349 
	C823.659607,36.966999 831.661865,32.726681 840.921875,34.735798 
z"/>
<path fill="#020202" opacity="1.000000" stroke="none" 
	d="
M764.932312,38.131874 
	C764.544556,35.053902 765.227234,33.558823 768.280579,33.984879 
	C771.042969,34.370335 773.889832,34.258099 776.611389,34.804279 
	C780.843872,35.653721 783.105835,38.354092 783.216614,42.820011 
	C783.333740,47.540253 781.488770,51.003891 776.778809,52.050327 
	C773.133301,52.860287 769.322327,52.925743 764.932312,53.391396 
	C764.932312,48.081581 764.932312,43.348717 764.932312,38.131874 
z"/>
</svg>